<?xml version="1.0" encoding="UTF-8"?><svg id="Ebene_1" xmlns="http://www.w3.org/2000/svg" viewBox="0 0 780.7 171.22"><defs><style>.cls-1{fill:white;}</style></defs><g><path class="cls-1" d="M42.09,162.57c-3.71,2.88-7.3,5.05-10.76,6.49-3.47,1.44-7.36,2.16-11.66,2.16-3.93,0-7.39-.78-10.37-2.33-2.98-1.56-5.27-3.66-6.89-6.32s-2.42-5.54-2.42-8.66c0-4.19,1.33-7.77,3.99-10.73,2.66-2.96,6.31-4.94,10.96-5.96,.97-.22,3.39-.73,7.25-1.52,3.86-.79,7.17-1.51,9.92-2.16,2.75-.66,5.74-1.45,8.97-2.39-.19-4.05-1-7.02-2.44-8.91-1.44-1.89-4.43-2.84-8.97-2.84-3.9,0-6.83,.54-8.8,1.63-1.97,1.09-3.65,2.72-5.06,4.89-1.4,2.17-2.4,3.61-2.98,4.3s-1.83,1.04-3.74,1.04c-1.72,0-3.21-.55-4.47-1.66-1.26-1.1-1.88-2.52-1.88-4.24,0-2.7,.96-5.32,2.87-7.87s4.89-4.65,8.94-6.29c4.05-1.65,9.09-2.47,15.12-2.47,6.75,0,12.05,.8,15.91,2.39,3.86,1.59,6.58,4.11,8.18,7.56,1.59,3.45,2.39,8.02,2.39,13.71,0,3.6,0,6.65-.03,9.16-.02,2.51-.05,5.3-.08,8.37,0,2.88,.48,5.89,1.43,9.02s1.43,5.14,1.43,6.04c0,1.57-.74,3.01-2.22,4.3-1.48,1.29-3.16,1.94-5.03,1.94-1.57,0-3.13-.74-4.66-2.22-1.54-1.48-3.17-3.62-4.89-6.43Zm-1.01-22.2c-2.25,.82-5.52,1.7-9.81,2.61-4.29,.92-7.26,1.59-8.91,2.02s-3.22,1.27-4.72,2.53c-1.5,1.26-2.25,3.01-2.25,5.26s.88,4.3,2.64,5.93c1.76,1.63,4.06,2.44,6.91,2.44,3.03,0,5.84-.67,8.4-2,2.57-1.33,4.45-3.05,5.65-5.14,1.39-2.32,2.08-6.14,2.08-11.46v-2.19Z"/><path class="cls-1" d="M106.84,162.57v-1.97c-1.84,2.32-3.76,4.27-5.79,5.84-2.02,1.57-4.23,2.74-6.63,3.51-2.4,.77-5.13,1.15-8.2,1.15-3.71,0-7.04-.77-9.98-2.31-2.94-1.53-5.22-3.65-6.83-6.35-1.91-3.26-2.87-7.94-2.87-14.05v-30.4c0-3.07,.69-5.37,2.08-6.89,1.39-1.52,3.22-2.28,5.51-2.28s4.2,.77,5.62,2.31,2.14,3.82,2.14,6.86v24.56c0,3.56,.3,6.55,.9,8.96,.6,2.42,1.68,4.31,3.23,5.68,1.56,1.37,3.66,2.05,6.32,2.05s5.02-.77,7.31-2.3c2.28-1.54,3.95-3.54,5-6.01,.86-2.17,1.29-6.93,1.29-14.27v-18.66c0-3.04,.71-5.32,2.14-6.86s3.28-2.31,5.56-2.31,4.12,.76,5.51,2.28c1.39,1.52,2.08,3.81,2.08,6.89v44.45c0,2.92-.67,5.11-2,6.58s-3.04,2.19-5.14,2.19-3.83-.76-5.2-2.27c-1.37-1.52-2.05-3.64-2.05-6.38Z"/><path class="cls-1" d="M132.64,110.19h1.69v-9.22c0-2.47,.07-4.41,.2-5.82,.13-1.4,.5-2.61,1.1-3.62,.6-1.05,1.46-1.9,2.58-2.56,1.13-.66,2.38-.98,3.77-.98,1.95,0,3.71,.73,5.28,2.19,1.05,.97,1.71,2.16,2,3.57s.42,3.4,.42,5.99v10.45h5.62c2.17,0,3.83,.52,4.97,1.54,1.14,1.03,1.71,2.35,1.71,3.96,0,2.06-.82,3.5-2.44,4.33-1.63,.82-3.96,1.24-7,1.24h-2.87v28.21c0,2.4,.08,4.24,.25,5.54,.17,1.29,.62,2.34,1.35,3.15s1.92,1.21,3.57,1.21c.9,0,2.12-.16,3.65-.48s2.73-.48,3.6-.48c1.24,0,2.35,.5,3.35,1.49,.99,.99,1.49,2.22,1.49,3.68,0,2.47-1.35,4.36-4.05,5.67-2.7,1.31-6.58,1.97-11.63,1.97-4.8,0-8.43-.81-10.9-2.42-2.47-1.61-4.09-3.84-4.86-6.69s-1.15-6.65-1.15-11.41v-29.45h-2.02c-2.21,0-3.9-.52-5.06-1.57s-1.74-2.38-1.74-3.99,.61-2.93,1.83-3.96c1.22-1.03,2.99-1.54,5.31-1.54Z"/></g><g><path class="cls-1" d="M297.59,66.2c0,1.91-.57,3.95-1.71,6.13-1.14,2.17-2.89,4.24-5.23,6.21-2.34,1.97-5.29,3.55-8.85,4.75-3.56,1.2-7.57,1.8-12.03,1.8-9.48,0-16.88-2.76-22.2-8.29-5.32-5.53-7.98-12.94-7.98-22.23,0-6.29,1.22-11.86,3.65-16.69,2.44-4.83,5.96-8.57,10.56-11.21s10.12-3.96,16.52-3.96c3.97,0,7.61,.58,10.93,1.74,3.32,1.16,6.13,2.66,8.43,4.5,2.31,1.84,4.06,3.79,5.28,5.87,1.22,2.08,1.83,4.02,1.83,5.82s-.68,3.39-2.05,4.66c-1.37,1.27-3.02,1.91-4.97,1.91-1.27,0-2.33-.33-3.18-.98-.84-.66-1.79-1.71-2.84-3.18-1.87-2.85-3.83-4.98-5.87-6.41-2.04-1.42-4.64-2.14-7.78-2.14-4.53,0-8.19,1.77-10.96,5.31-2.77,3.54-4.16,8.38-4.16,14.53,0,2.88,.35,5.54,1.07,7.95s1.74,4.48,3.09,6.18c1.35,1.7,2.98,3,4.89,3.88,1.91,.88,4.01,1.32,6.3,1.32,3.07,0,5.7-.71,7.9-2.14,2.19-1.42,4.13-3.6,5.82-6.52,.94-1.72,1.95-3.07,3.04-4.05,1.09-.97,2.42-1.46,3.99-1.46,1.87,0,3.43,.71,4.66,2.14s1.86,2.94,1.86,4.55Z"/><path class="cls-1" d="M321.25,9.33v22.76c1.95-2.25,3.85-4.03,5.71-5.34,1.85-1.31,3.91-2.29,6.15-2.95,2.25-.66,4.66-.98,7.25-.98,3.89,0,7.35,.82,10.37,2.47,3.01,1.65,5.39,4.05,7.11,7.19,1.09,1.84,1.82,3.89,2.19,6.15,.37,2.27,.56,4.88,.56,7.84v29.39c0,3.07-.7,5.39-2.11,6.97-1.4,1.57-3.27,2.36-5.59,2.36-5.06,0-7.59-3.11-7.59-9.33v-25.91c0-4.91-.73-8.68-2.19-11.33-1.46-2.64-4.23-3.96-8.32-3.96-2.74,0-5.2,.78-7.39,2.33-2.19,1.56-3.83,3.68-4.92,6.38-.82,2.29-1.24,6.35-1.24,12.2v20.29c0,3.03-.68,5.35-2.05,6.94-1.37,1.59-3.27,2.39-5.7,2.39-5.06,0-7.59-3.11-7.59-9.33V9.33c0-3.11,.66-5.44,2-7,1.33-1.55,3.19-2.33,5.59-2.33s4.34,.79,5.7,2.36c1.37,1.57,2.05,3.9,2.05,6.97Z"/><path class="cls-1" d="M413.87,57.77h-30.01c.04,3.48,.74,6.56,2.11,9.22,1.37,2.66,3.18,4.66,5.45,6.01,2.27,1.35,4.77,2.02,7.5,2.02,1.83,0,3.51-.22,5.03-.65,1.52-.43,2.99-1.11,4.41-2.02s2.74-1.9,3.93-2.95c1.2-1.05,2.75-2.47,4.66-4.27,.79-.68,1.91-1.01,3.37-1.01,1.57,0,2.85,.43,3.82,1.29,.97,.86,1.46,2.08,1.46,3.65,0,1.39-.54,3.01-1.63,4.86-1.09,1.86-2.72,3.64-4.92,5.34s-4.95,3.12-8.26,4.24c-3.32,1.13-7.13,1.69-11.44,1.69-9.85,0-17.52-2.81-22.98-8.43-5.47-5.62-8.21-13.25-8.21-22.87,0-4.53,.67-8.74,2.02-12.62,1.35-3.88,3.32-7.2,5.9-9.98,2.58-2.77,5.77-4.9,9.55-6.38,3.78-1.48,7.98-2.22,12.59-2.22,5.99,0,11.14,1.26,15.43,3.79,4.29,2.53,7.5,5.8,9.64,9.81s3.2,8.09,3.2,12.25c0,3.86-1.11,6.36-3.32,7.5-2.21,1.14-5.32,1.71-9.33,1.71Zm-30.01-8.71h27.82c-.38-5.24-1.79-9.17-4.24-11.77-2.45-2.6-5.69-3.91-9.69-3.91s-6.96,1.32-9.41,3.96c-2.45,2.64-3.94,6.55-4.47,11.72Z"/><path class="cls-1" d="M485.75,55.13v20.4c0,3.22-.73,5.64-2.19,7.25s-3.39,2.42-5.79,2.42-4.21-.81-5.65-2.42-2.16-4.03-2.16-7.25v-24.45c0-3.86-.13-6.86-.39-8.99-.26-2.14-.98-3.89-2.14-5.25-1.16-1.37-3-2.05-5.51-2.05-5.02,0-8.33,1.72-9.92,5.17-1.59,3.45-2.39,8.39-2.39,14.84v20.74c0,3.18-.72,5.59-2.16,7.22-1.44,1.63-3.34,2.44-5.7,2.44s-4.23-.81-5.71-2.44c-1.48-1.63-2.22-4.04-2.22-7.22V31.64c0-2.88,.66-5.08,2-6.58,1.33-1.5,3.08-2.25,5.25-2.25s3.85,.7,5.26,2.11c1.4,1.41,2.11,3.35,2.11,5.82v1.46c2.66-3.18,5.51-5.53,8.54-7.03,3.04-1.5,6.41-2.25,10.12-2.25s7.17,.77,9.95,2.3c2.77,1.54,5.06,3.86,6.86,6.97,2.58-3.15,5.36-5.48,8.32-7,2.96-1.52,6.24-2.27,9.83-2.27,4.2,0,7.81,.82,10.85,2.47,3.03,1.65,5.3,4.01,6.8,7.08,1.31,2.77,1.97,7.14,1.97,13.1v29.95c0,3.22-.73,5.64-2.19,7.25s-3.39,2.42-5.79,2.42-4.23-.81-5.71-2.44c-1.48-1.63-2.22-4.04-2.22-7.22v-25.8c0-3.3-.14-5.94-.42-7.93s-1.04-3.65-2.28-5c-1.24-1.35-3.11-2.02-5.62-2.02-2.02,0-3.94,.6-5.76,1.8-1.82,1.2-3.23,2.81-4.24,4.83-1.12,2.58-1.69,7.16-1.69,13.71Z"/><path class="cls-1" d="M546,31.42v1.85c2.88-3.56,5.88-6.17,8.99-7.84,3.11-1.67,6.63-2.5,10.56-2.5,4.72,0,9.07,1.22,13.04,3.65,3.97,2.44,7.11,5.99,9.41,10.68,2.31,4.68,3.46,10.23,3.46,16.64,0,4.72-.67,9.06-2,13.01-1.33,3.95-3.16,7.27-5.48,9.95-2.32,2.68-5.07,4.74-8.23,6.18s-6.57,2.16-10.2,2.16c-4.38,0-8.06-.88-11.04-2.64-2.98-1.76-5.82-4.35-8.51-7.76v23.04c0,6.75-2.45,10.12-7.36,10.12-2.89,0-4.8-.87-5.73-2.61-.94-1.74-1.4-4.28-1.4-7.62V31.53c0-2.92,.64-5.1,1.91-6.55s3.01-2.16,5.23-2.16,3.94,.74,5.31,2.22c1.37,1.48,2.05,3.61,2.05,6.38Zm30.07,22.31c0-4.05-.62-7.52-1.85-10.42s-2.95-5.13-5.14-6.69c-2.19-1.56-4.62-2.33-7.28-2.33-4.23,0-7.8,1.67-10.71,5-2.91,3.33-4.36,8.24-4.36,14.72,0,6.11,1.44,10.86,4.33,14.25,2.88,3.39,6.46,5.09,10.73,5.09,2.55,0,4.91-.74,7.08-2.22,2.17-1.48,3.91-3.7,5.23-6.66,1.31-2.96,1.97-6.54,1.97-10.73Z"/><path class="cls-1" d="M599.06,75.87V9.33c0-3.07,.68-5.39,2.05-6.97,1.37-1.57,3.21-2.36,5.54-2.36s4.2,.78,5.62,2.33c1.42,1.56,2.14,3.89,2.14,7V75.87c0,3.11-.72,5.44-2.17,7-1.44,1.55-3.31,2.33-5.59,2.33s-4.07-.81-5.48-2.42-2.11-3.91-2.11-6.91Z"/><path class="cls-1" d="M668.36,57.77h-30.01c.04,3.48,.74,6.56,2.11,9.22,1.37,2.66,3.18,4.66,5.45,6.01,2.27,1.35,4.77,2.02,7.5,2.02,1.83,0,3.51-.22,5.03-.65,1.52-.43,2.99-1.11,4.41-2.02s2.74-1.9,3.93-2.95c1.2-1.05,2.75-2.47,4.66-4.27,.79-.68,1.91-1.01,3.37-1.01,1.57,0,2.85,.43,3.82,1.29,.97,.86,1.46,2.08,1.46,3.65,0,1.39-.54,3.01-1.63,4.86-1.09,1.86-2.72,3.64-4.92,5.34s-4.95,3.12-8.26,4.24c-3.32,1.13-7.13,1.69-11.44,1.69-9.85,0-17.52-2.81-22.98-8.43-5.47-5.62-8.21-13.25-8.21-22.87,0-4.53,.67-8.74,2.02-12.62,1.35-3.88,3.32-7.2,5.9-9.98,2.58-2.77,5.77-4.9,9.55-6.38,3.78-1.48,7.98-2.22,12.59-2.22,5.99,0,11.14,1.26,15.43,3.79,4.29,2.53,7.5,5.8,9.64,9.81s3.2,8.09,3.2,12.25c0,3.86-1.11,6.36-3.32,7.5-2.21,1.14-5.32,1.71-9.33,1.71Zm-30.01-8.71h27.82c-.38-5.24-1.79-9.17-4.24-11.77s-5.69-3.91-9.69-3.91-6.96,1.32-9.41,3.96c-2.45,2.64-3.94,6.55-4.47,11.72Z"/><path class="cls-1" d="M690.05,24.17h1.69V14.95c0-2.47,.07-4.41,.2-5.82,.13-1.4,.5-2.61,1.1-3.62,.6-1.05,1.46-1.9,2.58-2.56,1.13-.66,2.38-.98,3.77-.98,1.95,0,3.71,.73,5.28,2.19,1.05,.97,1.71,2.16,2,3.57s.42,3.4,.42,5.98v10.45h5.62c2.17,0,3.83,.52,4.97,1.54,1.14,1.03,1.71,2.35,1.71,3.96,0,2.06-.82,3.5-2.44,4.33-1.63,.82-3.96,1.24-7,1.24h-2.87v28.21c0,2.4,.08,4.24,.25,5.54,.17,1.29,.62,2.34,1.35,3.15s1.92,1.21,3.57,1.21c.9,0,2.12-.16,3.65-.48s2.73-.48,3.6-.48c1.24,0,2.35,.5,3.35,1.49,.99,.99,1.49,2.22,1.49,3.68,0,2.47-1.35,4.36-4.05,5.67-2.7,1.31-6.58,1.97-11.63,1.97-4.8,0-8.43-.81-10.9-2.42-2.47-1.61-4.09-3.84-4.86-6.69s-1.15-6.65-1.15-11.41v-29.45h-2.02c-2.21,0-3.9-.52-5.06-1.57-1.16-1.05-1.74-2.38-1.74-3.99s.61-2.93,1.83-3.96c1.22-1.03,2.99-1.54,5.31-1.54Z"/><path class="cls-1" d="M768.06,57.77h-30.01c.04,3.48,.74,6.56,2.11,9.22,1.37,2.66,3.18,4.66,5.45,6.01,2.27,1.35,4.77,2.02,7.5,2.02,1.83,0,3.51-.22,5.03-.65,1.52-.43,2.99-1.11,4.41-2.02s2.74-1.9,3.93-2.95c1.2-1.05,2.75-2.47,4.66-4.27,.79-.68,1.91-1.01,3.37-1.01,1.57,0,2.85,.43,3.82,1.29,.97,.86,1.46,2.08,1.46,3.65,0,1.39-.54,3.01-1.63,4.86-1.09,1.86-2.72,3.64-4.92,5.34s-4.95,3.12-8.26,4.24c-3.32,1.13-7.13,1.69-11.44,1.69-9.85,0-17.52-2.81-22.98-8.43-5.47-5.62-8.21-13.25-8.21-22.87,0-4.53,.67-8.74,2.02-12.62,1.35-3.88,3.32-7.2,5.9-9.98,2.58-2.77,5.77-4.9,9.55-6.38,3.78-1.48,7.98-2.22,12.59-2.22,5.99,0,11.14,1.26,15.43,3.79,4.29,2.53,7.5,5.8,9.64,9.81s3.2,8.09,3.2,12.25c0,3.86-1.11,6.36-3.32,7.5-2.21,1.14-5.32,1.71-9.33,1.71Zm-30.01-8.71h27.82c-.38-5.24-1.79-9.17-4.24-11.77s-5.69-3.91-9.69-3.91-6.96,1.32-9.41,3.96c-2.45,2.64-3.94,6.55-4.47,11.72Z"/></g><g><path class="cls-1" d="M205.83,170.85h-18.05c-5.45,0-10.53-2.93-13.26-7.66l-9.02-15.63c-2.72-4.72-2.72-10.59,0-15.31l9.03-15.63c2.72-4.72,7.8-7.66,13.26-7.66h18.05c5.45,0,10.53,2.93,13.26,7.65l9.02,15.63c2.73,4.72,2.73,10.59,0,15.31l-9.02,15.63c-2.73,4.72-7.81,7.66-13.26,7.66Zm-18.05-49.9c-1.18,0-2.29,.64-2.88,1.66l-9.03,15.63c-.59,1.03-.59,2.3,0,3.33l9.02,15.63c.59,1.03,1.7,1.66,2.88,1.66h18.05c1.18,0,2.29-.64,2.88-1.67l9.02-15.63c.59-1.03,.59-2.3,0-3.33l-9.02-15.63c-.59-1.03-1.7-1.66-2.88-1.66h-18.05Z"/><path class="cls-1" d="M224.12,107.88c-1.53,0-3.07-.59-4.24-1.75-2.34-2.34-2.34-6.14,0-8.48l12.76-12.76c2.34-2.34,6.14-2.34,8.48,0,2.34,2.34,2.34,6.14,0,8.48l-12.76,12.76c-1.17,1.17-2.71,1.75-4.24,1.75Z"/></g></svg>